<svg width="22" height="22" viewBox="0 0 22 22" fill="none" xmlns="http://www.w3.org/2000/svg">
<g clip-path="url(#clip0_185_1102)">
<path d="M14.0855 3.15137L17.0289 8.24987H20.1667V10.0832H19.0969L18.403 18.4093C18.3839 18.6383 18.2795 18.8519 18.1104 19.0076C17.9413 19.1633 17.7199 19.2497 17.49 19.2499H4.50999C4.28014 19.2497 4.05872 19.1633 3.88961 19.0076C3.72051 18.8519 3.61607 18.6383 3.59699 18.4093L2.90216 10.0832H1.83333V8.24987H4.97016L7.91449 3.15137L9.50216 4.06803L7.08766 8.24987H14.9114L12.4978 4.06803L14.0855 3.15137ZM17.2572 10.0832H4.74191L5.35333 17.4165H16.6457L17.2572 10.0832ZM11.9167 11.9165V15.5832H10.0833V11.9165H11.9167ZM8.25 11.9165V15.5832H6.41666V11.9165H8.25ZM15.5833 11.9165V15.5832H13.75V11.9165H15.5833Z" fill="#2D2D2D"/>
</g>
<defs>
<clipPath id="clip0_185_1102">
<rect width="22" height="22" fill="white"/>
</clipPath>
</defs>
</svg>
