<svg width="22" height="22" viewBox="0 0 22 22" fill="none" xmlns="http://www.w3.org/2000/svg">
<g clip-path="url(#clip0_185_1105)">
<path d="M11.0009 4.15156C13.1542 2.21831 16.4817 2.28248 18.5561 4.36057C20.6296 6.43957 20.7011 9.75057 18.7724 11.9102L10.9991 19.6946L3.22758 11.9102C1.29892 9.75057 1.37133 6.43407 3.44392 4.36057C5.52017 2.28523 8.84125 2.21556 11.0009 4.15156ZM17.2581 5.65582C15.8831 4.27898 13.6648 4.22307 12.2256 5.51557L11.0018 6.61373L9.77717 5.51648C8.33342 4.22215 6.11967 4.27898 4.741 5.65765C3.37517 7.02348 3.30642 9.20973 4.565 10.6544L11 17.0995L17.435 10.6553C18.6945 9.20973 18.6258 7.02623 17.2581 5.65582Z" fill="#2D2D2D"/>
</g>
<defs>
<clipPath id="clip0_185_1105">
<rect width="22" height="22" fill="white"/>
</clipPath>
</defs>
</svg>
