<svg width="22" height="22" viewBox="0 0 22 22" fill="none" xmlns="http://www.w3.org/2000/svg">
<g filter="url(#filter0_b_50_901)">
<rect width="22" height="22" rx="5" fill="white" fill-opacity="0.2"/>
</g>
<g clip-path="url(#clip0_50_901)">
<path d="M11 4.25C10.3813 4.25 9.875 4.75625 9.875 5.375C9.875 5.99375 10.3813 6.5 11 6.5C11.6187 6.5 12.125 5.99375 12.125 5.375C12.125 4.75625 11.6187 4.25 11 4.25ZM11 15.5C10.3813 15.5 9.875 16.0063 9.875 16.625C9.875 17.2437 10.3813 17.75 11 17.75C11.6187 17.75 12.125 17.2437 12.125 16.625C12.125 16.0063 11.6187 15.5 11 15.5ZM11 9.875C10.3813 9.875 9.875 10.3813 9.875 11C9.875 11.6187 10.3813 12.125 11 12.125C11.6187 12.125 12.125 11.6187 12.125 11C12.125 10.3813 11.6187 9.875 11 9.875Z" fill="white"/>
</g>
<defs>
<filter id="filter0_b_50_901" x="-5" y="-5" width="32" height="32" filterUnits="userSpaceOnUse" color-interpolation-filters="sRGB">
<feFlood flood-opacity="0" result="BackgroundImageFix"/>
<feGaussianBlur in="BackgroundImageFix" stdDeviation="2.5"/>
<feComposite in2="SourceAlpha" operator="in" result="effect1_backgroundBlur_50_901"/>
<feBlend mode="normal" in="SourceGraphic" in2="effect1_backgroundBlur_50_901" result="shape"/>
</filter>
<clipPath id="clip0_50_901">
<rect width="18" height="18" fill="white" transform="translate(2 2)"/>
</clipPath>
</defs>
</svg>
