<svg width="22" height="22" viewBox="0 0 22 22" fill="none" xmlns="http://www.w3.org/2000/svg">
<g clip-path="url(#clip0_185_1099)">
<path d="M10.0833 1.8335C14.6373 1.8335 18.3333 5.5295 18.3333 10.0835C18.3333 14.6375 14.6373 18.3335 10.0833 18.3335C5.52934 18.3335 1.83334 14.6375 1.83334 10.0835C1.83334 5.5295 5.52934 1.8335 10.0833 1.8335ZM10.0833 16.5002C13.6281 16.5002 16.5 13.6282 16.5 10.0835C16.5 6.53783 13.6281 3.66683 10.0833 3.66683C6.53767 3.66683 3.66667 6.53783 3.66667 10.0835C3.66667 13.6282 6.53767 16.5002 10.0833 16.5002ZM17.8613 16.5652L20.4545 19.1576L19.1574 20.4547L16.5651 17.8614L17.8613 16.5652Z" fill="#2D2D2D"/>
</g>
<defs>
<clipPath id="clip0_185_1099">
<rect width="22" height="22" fill="white"/>
</clipPath>
</defs>
</svg>
