<svg width="20" height="20" viewBox="0 0 20 20" fill="none" xmlns="http://www.w3.org/2000/svg">
<path d="M9.99998 19.1666C4.93723 19.1666 0.833313 15.0627 0.833313 9.99992C0.833313 4.93717 4.93723 0.833252 9.99998 0.833252C15.0627 0.833252 19.1666 4.93717 19.1666 9.99992C19.1666 15.0627 15.0627 19.1666 9.99998 19.1666ZM9.99998 17.3333C11.9449 17.3333 13.8102 16.5606 15.1854 15.1854C16.5607 13.8101 17.3333 11.9448 17.3333 9.99992C17.3333 8.055 16.5607 6.18974 15.1854 4.81447C13.8102 3.4392 11.9449 2.66659 9.99998 2.66659C8.05506 2.66659 6.1898 3.4392 4.81453 4.81447C3.43926 6.18974 2.66665 8.055 2.66665 9.99992C2.66665 11.9448 3.43926 13.8101 4.81453 15.1854C6.1898 16.5606 8.05506 17.3333 9.99998 17.3333ZM10.9166 9.99992H14.5833V11.8333H9.08331V5.41659H10.9166V9.99992Z" fill="#F99928"/>
</svg>
