<svg width="22" height="22" viewBox="0 0 22 22" fill="none" xmlns="http://www.w3.org/2000/svg">
<g clip-path="url(#clip0_185_1108)">
<path d="M18.3333 20.1665H16.5V18.3332C16.5 17.6038 16.2103 16.9044 15.6945 16.3886C15.1788 15.8729 14.4793 15.5832 13.75 15.5832H8.24999C7.52064 15.5832 6.82117 15.8729 6.30545 16.3886C5.78972 16.9044 5.49999 17.6038 5.49999 18.3332V20.1665H3.66666V18.3332C3.66666 17.1176 4.14954 15.9518 5.00908 15.0923C5.86863 14.2327 7.03441 13.7498 8.24999 13.7498H13.75C14.9656 13.7498 16.1314 14.2327 16.9909 15.0923C17.8504 15.9518 18.3333 17.1176 18.3333 18.3332V20.1665ZM11 11.9165C10.2777 11.9165 9.56252 11.7742 8.89523 11.4978C8.22794 11.2214 7.62162 10.8163 7.1109 10.3056C6.60018 9.79487 6.19505 9.18855 5.91865 8.52126C5.64225 7.85397 5.49999 7.13877 5.49999 6.4165C5.49999 5.69423 5.64225 4.97904 5.91865 4.31175C6.19505 3.64445 6.60018 3.03814 7.1109 2.52742C7.62162 2.01669 8.22794 1.61157 8.89523 1.33517C9.56252 1.05877 10.2777 0.916504 11 0.916504C12.4587 0.916504 13.8576 1.49597 14.8891 2.52742C15.9205 3.55887 16.5 4.95781 16.5 6.4165C16.5 7.8752 15.9205 9.27414 14.8891 10.3056C13.8576 11.337 12.4587 11.9165 11 11.9165ZM11 10.0832C11.9724 10.0832 12.9051 9.69686 13.5927 9.00923C14.2803 8.3216 14.6667 7.38897 14.6667 6.4165C14.6667 5.44404 14.2803 4.51141 13.5927 3.82378C12.9051 3.13615 11.9724 2.74984 11 2.74984C10.0275 2.74984 9.0949 3.13615 8.40726 3.82378C7.71963 4.51141 7.33332 5.44404 7.33332 6.4165C7.33332 7.38897 7.71963 8.3216 8.40726 9.00923C9.0949 9.69686 10.0275 10.0832 11 10.0832Z" fill="#2D2D2D"/>
</g>
<defs>
<clipPath id="clip0_185_1108">
<rect width="22" height="22" fill="white"/>
</clipPath>
</defs>
</svg>
