<svg width="22" height="22" viewBox="0 0 22 22" fill="none" xmlns="http://www.w3.org/2000/svg">
<rect width="22" height="22" rx="5" fill="#2FDBBC"/>
<g clip-path="url(#clip0_185_682)">
<path d="M13.5245 4.57861L15.9327 8.75011H18.5V10.2501H17.6247L17.057 17.0624C17.0414 17.2498 16.9559 17.4245 16.8176 17.5519C16.6792 17.6793 16.4981 17.75 16.31 17.7501H5.68999C5.50193 17.75 5.32076 17.6793 5.18241 17.5519C5.04405 17.4245 4.9586 17.2498 4.94299 17.0624L4.37449 10.2501H3.49999V8.75011H6.06649L8.47549 4.57861L9.77449 5.32861L7.79899 8.75011H14.2002L12.2255 5.32861L13.5245 4.57861ZM16.1195 10.2501H5.87974L6.37999 16.2501H15.6192L16.1195 10.2501ZM11.75 11.7501V14.7501H10.25V11.7501H11.75ZM8.74999 11.7501V14.7501H7.24999V11.7501H8.74999ZM14.75 11.7501V14.7501H13.25V11.7501H14.75Z" fill="white"/>
</g>
<defs>
<clipPath id="clip0_185_682">
<rect width="18" height="18" fill="white" transform="translate(2 2)"/>
</clipPath>
</defs>
</svg>
