<svg width="22" height="22" viewBox="0 0 22 22" fill="none" xmlns="http://www.w3.org/2000/svg">
<g clip-path="url(#clip0_50_775)">
<path d="M11 21.7508L5.16634 15.9171C4.01256 14.7633 3.22684 13.2933 2.90852 11.693C2.5902 10.0926 2.75358 8.43382 3.37801 6.92633C4.00243 5.41885 5.05986 4.13038 6.41656 3.22386C7.77326 2.31735 9.36831 1.8335 11 1.8335C12.6317 1.8335 14.2267 2.31735 15.5834 3.22386C16.9401 4.13038 17.9976 5.41885 18.622 6.92633C19.2464 8.43382 19.4098 10.0926 19.0915 11.693C18.7732 13.2933 17.9874 14.7633 16.8337 15.9171L11 21.7508ZM15.5375 14.6209C16.4348 13.7235 17.0459 12.5802 17.2934 11.3355C17.541 10.0908 17.4138 8.80064 16.9282 7.62818C16.4425 6.45573 15.62 5.45362 14.5648 4.74858C13.5096 4.04354 12.2691 3.66722 11 3.66722C9.73093 3.66722 8.49036 4.04354 7.43516 4.74858C6.37996 5.45362 5.55752 6.45573 5.07184 7.62818C4.58616 8.80064 4.45905 10.0908 4.70658 11.3355C4.95412 12.5802 5.56518 13.7235 6.4625 14.6209L11 19.1584L15.5375 14.6209ZM11 11.9168C10.5138 11.9168 10.0475 11.7236 9.70364 11.3798C9.35982 11.036 9.16667 10.5697 9.16667 10.0834C9.16667 9.59719 9.35982 9.13088 9.70364 8.78706C10.0475 8.44325 10.5138 8.25009 11 8.25009C11.4862 8.25009 11.9525 8.44325 12.2964 8.78706C12.6402 9.13088 12.8333 9.59719 12.8333 10.0834C12.8333 10.5697 12.6402 11.036 12.2964 11.3798C11.9525 11.7236 11.4862 11.9168 11 11.9168Z" fill="#F99928"/>
</g>
<defs>
<clipPath id="clip0_50_775">
<rect width="22" height="22" fill="white"/>
</clipPath>
</defs>
</svg>
