<svg width="22" height="22" viewBox="0 0 22 22" fill="none" xmlns="http://www.w3.org/2000/svg">
<g filter="url(#filter0_b_185_687)">
<rect width="22" height="22" rx="5" fill="white" fill-opacity="0.2"/>
</g>
<g clip-path="url(#clip0_185_687)">
<path d="M11.0007 5.39673C12.7625 3.81498 15.485 3.86748 17.1822 5.56774C18.8787 7.26874 18.9372 9.97774 17.3592 11.7447L10.9992 18.1137L4.64074 11.7447C3.06274 9.97774 3.12199 7.26424 4.81774 5.56774C6.51649 3.86973 9.23374 3.81273 11.0007 5.39673ZM16.1202 6.62749C14.9952 5.50099 13.1802 5.45524 12.0027 6.51274L11.0015 7.41124L9.99949 6.51349C8.81824 5.45449 7.00699 5.50099 5.87899 6.62899C4.76149 7.74649 4.70524 9.53524 5.73499 10.7172L11 15.9905L16.265 10.718C17.2955 9.53523 17.2392 7.74874 16.1202 6.62749Z" fill="white"/>
</g>
<defs>
<filter id="filter0_b_185_687" x="-5" y="-5" width="32" height="32" filterUnits="userSpaceOnUse" color-interpolation-filters="sRGB">
<feFlood flood-opacity="0" result="BackgroundImageFix"/>
<feGaussianBlur in="BackgroundImageFix" stdDeviation="2.5"/>
<feComposite in2="SourceAlpha" operator="in" result="effect1_backgroundBlur_185_687"/>
<feBlend mode="normal" in="SourceGraphic" in2="effect1_backgroundBlur_185_687" result="shape"/>
</filter>
<clipPath id="clip0_185_687">
<rect width="18" height="18" fill="white" transform="translate(2 2)"/>
</clipPath>
</defs>
</svg>
